<?plantuml 1.2026.2beta2?><svg xmlns="http://www.w3.org/2000/svg" xmlns:xlink="http://www.w3.org/1999/xlink" contentStyleType="text/css" data-diagram-type="DESCRIPTION" height="959px" preserveAspectRatio="none" style="width:920px;height:959px;background:#FAFCFF;" version="1.1" viewBox="0 0 920 959" width="920px" zoomAndPan="magnify"><title>&lt;size:18&gt;&lt;b&gt;H&#7879; th&#7889;ng Qu&#7843;n l&#253; Odoo FITDNU&lt;/b&gt;&lt;/size&gt;
&lt;size:12&gt;Ki&#7871;n tr&#250;c t&#7893;ng quan - 3 Module ch&#237;nh + AI/OCR&lt;/size&gt;</title><defs><filter height="300%" id="fhu37805qvgz6" width="300%" x="-1" y="-1"><feGaussianBlur result="blurOut" stdDeviation="2"/><feColorMatrix in="blurOut" result="blurOut2" type="matrix" values="0 0 0 0 0 0 0 0 0 0 0 0 0 0 0 0 0 0 .4 0"/><feOffset dx="4" dy="4" in="blurOut2" result="blurOut3"/><feBlend in="SourceGraphic" in2="blurOut3" mode="normal"/></filter></defs><g><rect fill="#FAFCFF" height="959" style="stroke:none;stroke-width:1;" width="920" x="0" y="0"/><g class="title" data-source-line="36"><text fill="#000000" font-family="'Arial'" font-size="18" font-weight="bold" lengthAdjust="spacing" textLength="317.8828" x="294.2586" y="26.708">H&#7879; th&#7889;ng Qu&#7843;n l&#253; Odoo FITDNU</text><text fill="#000000" font-family="'Arial'" font-size="12" font-weight="bold" lengthAdjust="spacing" textLength="316.084" x="295.158" y="42.0918">Ki&#7871;n tr&#250;c t&#7893;ng quan - 3 Module ch&#237;nh + AI/OCR</text></g><!--cluster ui_layer--><g class="cluster" data-qualified-name="ui_layer" data-source-line="44" id="ent0005"><rect fill="#E3F2FD" filter="url(#fhu37805qvgz6)" height="220" rx="7.5" ry="7.5" style="stroke:#181818;stroke-width:1;" width="357.91" x="120.04" y="62.9219"/><text fill="#000000" font-family="'Arial'" font-size="12" font-weight="bold" lengthAdjust="spacing" textLength="70.6465" x="263.6718" y="76.0605">GIAO DI&#7878;N</text><text fill="#000000" font-family="'Arial'" font-size="12" font-weight="bold" lengthAdjust="spacing" textLength="59.3203" x="269.3348" y="90.0293">(Web UI)</text></g><!--cluster app_layer--><g class="cluster" data-qualified-name="app_layer" data-source-line="52" id="ent0010"><rect fill="#E8F5E9" filter="url(#fhu37805qvgz6)" height="509" rx="7.5" ry="7.5" style="stroke:#181818;stroke-width:1;" width="206.59" x="297.99" y="322.9219"/><text fill="#000000" font-family="'Arial'" font-size="12" font-weight="bold" lengthAdjust="spacing" textLength="73.6934" x="364.4383" y="336.0605">&#7912;NG D&#7908;NG</text><text fill="#000000" font-family="'Arial'" font-size="12" font-weight="bold" lengthAdjust="spacing" textLength="107.1387" x="347.7157" y="350.0293">(Odoo Modules)</text></g><!--cluster core_layer--><g class="cluster" data-qualified-name="core_layer" data-source-line="59" id="ent0014"><rect fill="#FFF3E0" filter="url(#fhu37805qvgz6)" height="248" rx="7.5" ry="7.5" style="stroke:#181818;stroke-width:1;" width="363.82" x="544.58" y="511.9219"/><text fill="#000000" font-family="'Arial'" font-size="12" font-weight="bold" lengthAdjust="spacing" textLength="81.1875" x="685.8963" y="525.0605">ODOO CORE</text><text fill="#000000" font-family="'Arial'" font-size="12" font-weight="bold" lengthAdjust="spacing" textLength="72.8379" x="690.0711" y="539.0293">(N&#7873;n t&#7843;ng)</text></g><!--entity form--><g class="entity" data-qualified-name="ui_layer.form" data-source-line="45" id="ent0006"><rect fill="#BBDEFB" filter="url(#fhu37805qvgz6)" height="43.9688" rx="5" ry="5" style="stroke:#181818;stroke-width:0.5;" width="103.4219" x="151.3" y="195.9319"/><rect fill="#BBDEFB" height="10" style="stroke:#181818;stroke-width:0.5;" width="15" x="234.7219" y="200.9319"/><rect fill="#BBDEFB" height="2" style="stroke:#181818;stroke-width:0.5;" width="4" x="232.7219" y="202.9319"/><rect fill="#BBDEFB" height="2" style="stroke:#181818;stroke-width:0.5;" width="4" x="232.7219" y="206.9319"/><text fill="#000000" font-family="'Arial'" font-size="12" lengthAdjust="spacing" textLength="63.4219" x="166.3" y="227.0705">Form View</text></g><!--entity kanban--><g class="entity" data-qualified-name="ui_layer.kanban" data-source-line="46" id="ent0007"><rect fill="#BBDEFB" filter="url(#fhu37805qvgz6)" height="43.9688" rx="5" ry="5" style="stroke:#181818;stroke-width:0.5;" width="117.959" x="144.04" y="116.9319"/><rect fill="#BBDEFB" height="10" style="stroke:#181818;stroke-width:0.5;" width="15" x="241.999" y="121.9319"/><rect fill="#BBDEFB" height="2" style="stroke:#181818;stroke-width:0.5;" width="4" x="239.999" y="123.9319"/><rect fill="#BBDEFB" height="2" style="stroke:#181818;stroke-width:0.5;" width="4" x="239.999" y="127.9319"/><text fill="#000000" font-family="'Arial'" font-size="12" lengthAdjust="spacing" textLength="77.959" x="159.04" y="148.0705">Kanban View</text></g><!--entity dashboard--><g class="entity" data-qualified-name="ui_layer.dashboard" data-source-line="47" id="ent0008"><rect fill="#BBDEFB" filter="url(#fhu37805qvgz6)" height="43.9688" rx="5" ry="5" style="stroke:#181818;stroke-width:0.5;" width="105.3145" x="348.63" y="195.9319"/><rect fill="#BBDEFB" height="10" style="stroke:#181818;stroke-width:0.5;" width="15" x="433.9445" y="200.9319"/><rect fill="#BBDEFB" height="2" style="stroke:#181818;stroke-width:0.5;" width="4" x="431.9445" y="202.9319"/><rect fill="#BBDEFB" height="2" style="stroke:#181818;stroke-width:0.5;" width="4" x="431.9445" y="206.9319"/><text fill="#000000" font-family="'Arial'" font-size="12" lengthAdjust="spacing" textLength="65.3145" x="363.63" y="227.0705">Dashboard</text></g><!--entity wizard--><g class="entity" data-qualified-name="ui_layer.wizard" data-source-line="48" id="ent0009"><rect fill="#BBDEFB" filter="url(#fhu37805qvgz6)" height="43.9688" rx="5" ry="5" style="stroke:#181818;stroke-width:0.5;" width="81.4023" x="360.59" y="116.9319"/><rect fill="#BBDEFB" height="10" style="stroke:#181818;stroke-width:0.5;" width="15" x="421.9923" y="121.9319"/><rect fill="#BBDEFB" height="2" style="stroke:#181818;stroke-width:0.5;" width="4" x="419.9923" y="123.9319"/><rect fill="#BBDEFB" height="2" style="stroke:#181818;stroke-width:0.5;" width="4" x="419.9923" y="127.9319"/><text fill="#000000" font-family="'Arial'" font-size="12" lengthAdjust="spacing" textLength="41.4023" x="375.59" y="148.0705">Wizard</text></g><!--entity mod_vanban--><g class="entity" data-qualified-name="app_layer.mod_vanban" data-source-line="53" id="ent0011"><rect fill="#C8E6C9" filter="url(#fhu37805qvgz6)" height="113.8125" rx="5" ry="5" style="stroke:#181818;stroke-width:0.5;" width="149.418" x="326.58" y="396.0119"/><rect fill="#C8E6C9" height="10" style="stroke:#181818;stroke-width:0.5;" width="15" x="455.998" y="401.0119"/><rect fill="#C8E6C9" height="2" style="stroke:#181818;stroke-width:0.5;" width="4" x="453.998" y="403.0119"/><rect fill="#C8E6C9" height="2" style="stroke:#181818;stroke-width:0.5;" width="4" x="453.998" y="407.0119"/><text fill="#000000" font-family="'Arial'" font-size="12" font-weight="bold" lengthAdjust="spacing" textLength="61.2715" x="341.58" y="427.1505">V&#258;N B&#7842;N</text><text fill="#000000" font-family="'Arial'" font-size="12" lengthAdjust="spacing" textLength="65.0215" x="341.58" y="441.1193">&#9473;&#9473;&#9473;&#9473;&#9473;&#9473;&#9473;&#9473;&#9473;</text><text fill="#000000" font-family="'Arial'" font-size="12" lengthAdjust="spacing" textLength="109.418" x="341.58" y="455.088">&#8226; Qu&#7843;n l&#253; v&#259;n b&#7843;n</text><text fill="#000000" font-family="'Arial'" font-size="12" lengthAdjust="spacing" textLength="98.625" x="341.58" y="469.0568">&#8226; OCR tr&#237;ch xu&#7845;t</text><text fill="#000000" font-family="'Arial'" font-size="12" lengthAdjust="spacing" textLength="71.7422" x="341.58" y="483.0255">&#8226; K&#253; &#273;i&#7879;n t&#7917;</text><text fill="#000000" font-family="'Arial'" font-size="12" lengthAdjust="spacing" textLength="104.9238" x="341.58" y="496.9943">&#8226; Workflow duy&#7879;t</text></g><!--entity mod_khachhang--><g class="entity" data-qualified-name="app_layer.mod_khachhang" data-source-line="54" id="ent0012"><rect fill="#A5D6A7" filter="url(#fhu37805qvgz6)" height="113.8125" rx="5" ry="5" style="stroke:#181818;stroke-width:0.5;" width="158.5879" x="321.99" y="694.0119"/><rect fill="#A5D6A7" height="10" style="stroke:#181818;stroke-width:0.5;" width="15" x="460.5779" y="699.0119"/><rect fill="#A5D6A7" height="2" style="stroke:#181818;stroke-width:0.5;" width="4" x="458.5779" y="701.0119"/><rect fill="#A5D6A7" height="2" style="stroke:#181818;stroke-width:0.5;" width="4" x="458.5779" y="705.0119"/><text fill="#000000" font-family="'Arial'" font-size="12" font-weight="bold" lengthAdjust="spacing" textLength="90.8789" x="336.99" y="725.1505">KH&#193;CH H&#192;NG</text><text fill="#000000" font-family="'Arial'" font-size="12" lengthAdjust="spacing" textLength="65.0215" x="336.99" y="739.1193">&#9473;&#9473;&#9473;&#9473;&#9473;&#9473;&#9473;&#9473;&#9473;</text><text fill="#000000" font-family="'Arial'" font-size="12" lengthAdjust="spacing" textLength="118.5879" x="336.99" y="753.088">&#8226; H&#7891; s&#417; kh&#225;ch h&#224;ng</text><text fill="#000000" font-family="'Arial'" font-size="12" lengthAdjust="spacing" textLength="69.1348" x="336.99" y="767.0568">&#8226; &#272;&#417;n h&#224;ng</text><text fill="#000000" font-family="'Arial'" font-size="12" lengthAdjust="spacing" textLength="84.9844" x="336.99" y="781.0255">&#8226; H&#7895; tr&#7907;/CSKH</text><text fill="#000000" font-family="'Arial'" font-size="12" lengthAdjust="spacing" textLength="107.0918" x="336.99" y="794.9943">&#8226; Dashboard CRM</text></g><!--entity mod_nhansu--><g class="entity" data-qualified-name="app_layer.mod_nhansu" data-source-line="55" id="ent0013"><rect fill="#81C784" filter="url(#fhu37805qvgz6)" height="113.8125" rx="5" ry="5" style="stroke:#181818;stroke-width:0.5;" width="158.4238" x="322.08" y="545.0119"/><rect fill="#81C784" height="10" style="stroke:#181818;stroke-width:0.5;" width="15" x="460.5038" y="550.0119"/><rect fill="#81C784" height="2" style="stroke:#181818;stroke-width:0.5;" width="4" x="458.5038" y="552.0119"/><rect fill="#81C784" height="2" style="stroke:#181818;stroke-width:0.5;" width="4" x="458.5038" y="556.0119"/><text fill="#000000" font-family="'Arial'" font-size="12" font-weight="bold" lengthAdjust="spacing" textLength="62.2617" x="337.08" y="576.1505">NH&#194;N S&#7920;</text><text fill="#000000" font-family="'Arial'" font-size="12" lengthAdjust="spacing" textLength="65.0215" x="337.08" y="590.1193">&#9473;&#9473;&#9473;&#9473;&#9473;&#9473;&#9473;&#9473;&#9473;</text><text fill="#000000" font-family="'Arial'" font-size="12" lengthAdjust="spacing" textLength="107.8887" x="337.08" y="604.088">&#8226; H&#7891; s&#417; nh&#226;n vi&#234;n</text><text fill="#000000" font-family="'Arial'" font-size="12" lengthAdjust="spacing" textLength="78.8965" x="337.08" y="618.0568">&#8226; Ch&#7845;m c&#244;ng</text><text fill="#000000" font-family="'Arial'" font-size="12" lengthAdjust="spacing" textLength="79.0195" x="337.08" y="632.0255">&#8226; B&#7843;ng l&#432;&#417;ng</text><text fill="#000000" font-family="'Arial'" font-size="12" lengthAdjust="spacing" textLength="118.4238" x="337.08" y="645.9943">&#8226; Ph&#242;ng ban/Vai tr&#242;</text></g><!--entity orm--><g class="entity" data-qualified-name="core_layer.orm" data-source-line="60" id="ent0015"><rect fill="#FFE0B2" filter="url(#fhu37805qvgz6)" height="57.9375" rx="5" ry="5" style="stroke:#181818;stroke-width:0.5;" width="91.6445" x="577.56" y="658.9519"/><rect fill="#FFE0B2" height="10" style="stroke:#181818;stroke-width:0.5;" width="15" x="649.2045" y="663.9519"/><rect fill="#FFE0B2" height="2" style="stroke:#181818;stroke-width:0.5;" width="4" x="647.2045" y="665.9519"/><rect fill="#FFE0B2" height="2" style="stroke:#181818;stroke-width:0.5;" width="4" x="647.2045" y="669.9519"/><text fill="#000000" font-family="'Arial'" font-size="12" lengthAdjust="spacing" textLength="28.1367" x="592.56" y="690.0905">ORM</text><text fill="#000000" font-family="'Arial'" font-size="12" lengthAdjust="spacing" textLength="51.6445" x="592.56" y="704.0593">(Models)</text></g><!--entity security--><g class="entity" data-qualified-name="core_layer.security" data-source-line="61" id="ent0016"><rect fill="#FFE0B2" filter="url(#fhu37805qvgz6)" height="57.9375" rx="5" ry="5" style="stroke:#181818;stroke-width:0.5;" width="109.5918" x="568.58" y="565.9519"/><rect fill="#FFE0B2" height="10" style="stroke:#181818;stroke-width:0.5;" width="15" x="658.1718" y="570.9519"/><rect fill="#FFE0B2" height="2" style="stroke:#181818;stroke-width:0.5;" width="4" x="656.1718" y="572.9519"/><rect fill="#FFE0B2" height="2" style="stroke:#181818;stroke-width:0.5;" width="4" x="656.1718" y="576.9519"/><text fill="#000000" font-family="'Arial'" font-size="12" lengthAdjust="spacing" textLength="49.2773" x="583.58" y="597.0905">Security</text><text fill="#000000" font-family="'Arial'" font-size="12" lengthAdjust="spacing" textLength="69.5918" x="583.58" y="611.0593">(ACL/Rules)</text></g><!--entity mail--><g class="entity" data-qualified-name="core_layer.mail" data-source-line="62" id="ent0017"><rect fill="#FFE0B2" filter="url(#fhu37805qvgz6)" height="57.9375" rx="5" ry="5" style="stroke:#181818;stroke-width:0.5;" width="124.4688" x="759.93" y="658.9519"/><rect fill="#FFE0B2" height="10" style="stroke:#181818;stroke-width:0.5;" width="15" x="864.3988" y="663.9519"/><rect fill="#FFE0B2" height="2" style="stroke:#181818;stroke-width:0.5;" width="4" x="862.3988" y="665.9519"/><rect fill="#FFE0B2" height="2" style="stroke:#181818;stroke-width:0.5;" width="4" x="862.3988" y="669.9519"/><text fill="#000000" font-family="'Arial'" font-size="12" lengthAdjust="spacing" textLength="24.375" x="774.93" y="690.0905">Mail</text><text fill="#000000" font-family="'Arial'" font-size="12" lengthAdjust="spacing" textLength="84.4688" x="774.93" y="704.0593">(Notifications)</text></g><!--entity workflow--><g class="entity" data-qualified-name="core_layer.workflow" data-source-line="63" id="ent0018"><rect fill="#FFE0B2" filter="url(#fhu37805qvgz6)" height="57.9375" rx="5" ry="5" style="stroke:#181818;stroke-width:0.5;" width="95.8047" x="774.26" y="565.9519"/><rect fill="#FFE0B2" height="10" style="stroke:#181818;stroke-width:0.5;" width="15" x="850.0647" y="570.9519"/><rect fill="#FFE0B2" height="2" style="stroke:#181818;stroke-width:0.5;" width="4" x="848.0647" y="572.9519"/><rect fill="#FFE0B2" height="2" style="stroke:#181818;stroke-width:0.5;" width="4" x="848.0647" y="576.9519"/><text fill="#000000" font-family="'Arial'" font-size="12" lengthAdjust="spacing" textLength="55.8047" x="789.26" y="597.0905">Workflow</text><text fill="#000000" font-family="'Arial'" font-size="12" lengthAdjust="spacing" textLength="47.3789" x="789.26" y="611.0593">(States)</text></g><!--entity admin--><g class="entity" data-qualified-name="admin" data-source-line="39" id="ent0002"><ellipse cx="45.0176" cy="132.9319" fill="#E8F5E9" filter="url(#fhu37805qvgz6)" rx="8" ry="8" style="stroke:#1976D2;stroke-width:0.5;"/><path d="M45.0176,140.9319 L45.0176,167.9319 M32.0176,148.9319 L58.0176,148.9319 M45.0176,167.9319 L32.0176,182.9319 M45.0176,167.9319 L58.0176,182.9319" fill="none" filter="url(#fhu37805qvgz6)" style="stroke:#1976D2;stroke-width:0.5;"/><text fill="#1565C0" font-family="'Arial'" font-size="12" lengthAdjust="spacing" textLength="78.0352" x="6" y="198.5705">Qu&#7843;n tr&#7883; vi&#234;n</text></g><!--entity staff--><g class="entity" data-qualified-name="staff" data-source-line="40" id="ent0003"><ellipse cx="45.0196" cy="244.9319" fill="#E3F2FD" filter="url(#fhu37805qvgz6)" rx="8" ry="8" style="stroke:#1976D2;stroke-width:0.5;"/><path d="M45.0196,252.9319 L45.0196,279.9319 M32.0196,260.9319 L58.0196,260.9319 M45.0196,279.9319 L32.0196,294.9319 M45.0196,279.9319 L58.0196,294.9319" fill="none" filter="url(#fhu37805qvgz6)" style="stroke:#1976D2;stroke-width:0.5;"/><text fill="#1565C0" font-family="'Arial'" font-size="12" lengthAdjust="spacing" textLength="60.7793" x="14.63" y="310.5705">Nh&#226;n vi&#234;n</text></g><!--entity customer--><g class="entity" data-qualified-name="customer" data-source-line="41" id="ent0004"><ellipse cx="45.0137" cy="356.9319" fill="#FFF3E0" filter="url(#fhu37805qvgz6)" rx="8" ry="8" style="stroke:#1976D2;stroke-width:0.5;"/><path d="M45.0137,364.9319 L45.0137,391.9319 M32.0137,372.9319 L58.0137,372.9319 M45.0137,391.9319 L32.0137,406.9319 M45.0137,391.9319 L58.0137,406.9319" fill="none" filter="url(#fhu37805qvgz6)" style="stroke:#1976D2;stroke-width:0.5;"/><text fill="#1565C0" font-family="'Arial'" font-size="12" lengthAdjust="spacing" textLength="71.0273" x="9.5" y="422.5705">Kh&#225;ch h&#224;ng</text></g><!--entity db--><g class="entity" data-qualified-name="db" data-source-line="67" id="ent0019"><path d="M772.64,793.4519 C772.64,783.4519 822.1673,783.4519 822.1673,783.4519 C822.1673,783.4519 871.6947,783.4519 871.6947,793.4519 L871.6947,830.3894 C871.6947,840.3894 822.1673,840.3894 822.1673,840.3894 C822.1673,840.3894 772.64,840.3894 772.64,830.3894 L772.64,793.4519" fill="#FFF8E1" filter="url(#fhu37805qvgz6)" style="stroke:#F9A825;stroke-width:0.5;"/><path d="M772.64,793.4519 C772.64,803.4519 822.1673,803.4519 822.1673,803.4519 C822.1673,803.4519 871.6947,803.4519 871.6947,793.4519" fill="none" style="stroke:#F9A825;stroke-width:0.5;"/><text fill="#F57F17" font-family="'Arial'" font-size="12" font-weight="bold" lengthAdjust="spacing" textLength="79.0547" x="782.64" y="818.5905">PostgreSQL</text><text fill="#F57F17" font-family="'Arial'" font-size="12" lengthAdjust="spacing" textLength="57.2578" x="782.64" y="832.5593">Database</text></g><!--entity ai_service--><g class="entity" data-qualified-name="ai_service" data-source-line="70" id="ent0020"><path d="M555.6559,182.7664 C559.1457,175.9031 564.1815,176.73 568.0704,182.3702 C569.971,175.2883 574.6277,175.0326 579.5612,179.2993 C582.9592,174.5934 586.2189,175.0693 589.5323,179.3927 C590.864,172.6472 595.91,170.8408 600.7646,176.0952 C604.6852,169.6889 608.5086,169.7209 613.1166,175.3922 C615.4401,170.1535 619.4112,168.8539 623.9261,172.8183 C628.5562,168.7493 633.6607,169.1897 635.3051,175.9543 C638.872,171.5563 642.9779,171.5751 646.3969,176.1375 C651.168,170.4197 655.361,172.8688 658.093,178.2804 C663.6311,172.7077 667.2848,173.6043 670.0543,180.8616 C674.3442,176.2487 679.1274,176.9825 682.181,182.362 C685.1538,176.5046 690.4939,176.6089 693.6902,182.136 C700.2003,185.5923 700.9518,190.7332 694.2838,194.8069 C699.6187,197.0235 700.7953,201.6464 695.7489,205.3109 C701.4872,208.0364 702.4757,214.0669 696.6331,217.6239 C702.0653,221.4649 701.9522,225.5728 696.5318,229.3199 C701.9624,234.2955 700.3598,239.7592 693.3508,241.4811 C698.6125,245.1095 699.6084,249.8524 693.2924,253.4241 C690.8739,259.5065 685.977,258.3857 682.6427,254.3921 C678.6512,259.8153 673.9755,259.2532 670.3039,254.0216 C667.9432,259.519 662.924,260.2231 659.2394,255.4475 C655.7735,261.6182 651.0513,261.4792 646.4688,256.7565 C643.2105,263.043 639.789,262.1845 635.5115,257.8034 C631.7368,262.2263 628.0855,262.4473 624.8752,257.1837 C620.9906,262.197 615.2822,262.0324 612.4123,256.0352 C609.911,261.6917 605.8845,261.9844 602.3178,257.0508 C598.4819,262.8021 593.9647,261.8717 590.7915,256.372 C586.3082,261.1528 581.7007,261.0364 579.2092,254.3588 C575.0389,259.9921 570.088,259.7173 566.2705,253.9581 C563.0758,258.103 558.0808,259.1044 555.5748,253.2234 C549.1017,250.7492 549.0947,246.0894 553.4011,241.5995 C546.1737,239.1461 546.1885,233.5061 551.069,228.8397 C545.2033,227.2986 543.8204,222.9737 547.5801,218.2587 C541.9484,212.8367 544.4836,208.606 550.4509,205.8723 C546.1532,201.4108 545.8597,197.3111 552.1118,194.3734 C547.2467,189.7128 549.0191,183.915 555.6559,182.7664" fill="#F3E5F5" filter="url(#fhu37805qvgz6)" style="stroke:#8E24AA;stroke-width:0.5;"/><text fill="#6A1B9A" font-family="'Arial'" font-size="12" font-weight="bold" lengthAdjust="spacing" textLength="46.3828" x="561.83" y="200.1205">AI/OCR</text><text fill="#6A1B9A" font-family="'Arial'" font-size="12" lengthAdjust="spacing" textLength="98.9824" x="561.83" y="214.0893">&#8226; Tr&#237;ch xu&#7845;t text</text><text fill="#6A1B9A" font-family="'Arial'" font-size="12" lengthAdjust="spacing" textLength="123.1055" x="561.83" y="228.058">&#8226; Ph&#226;n t&#237;ch n&#7897;i dung</text><text fill="#6A1B9A" font-family="'Arial'" font-size="12" lengthAdjust="spacing" textLength="101.8184" x="561.83" y="242.0268">&#8226; Auto-fill d&#7919; li&#7879;u</text></g><!--entity pki_service--><g class="entity" data-qualified-name="pki_service" data-source-line="71" id="ent0021"><path d="M563.4688,304.3676 C566.7021,298.7517 571.7128,297.7013 575.9742,303.2121 C577.9297,296.5982 583.0475,295.6687 587.6806,300.465 C590.5115,293.9047 596.4342,293.2241 600.7418,298.887 C603.0097,292.7454 606.8004,291.7969 611.4242,296.5842 C614.327,288.1384 619.8341,287.9635 625.4304,293.9747 C629.298,289.9172 634.8176,290.8337 636.7064,296.314 C641.1546,291.362 646.3015,293.788 647.7599,299.4327 C652.9015,293.3838 658.2235,293.0596 661.6727,301.1035 C664.8046,295.679 669.5215,296.528 672.1621,301.5947 C677.5311,295.0225 682.6741,296.5045 685.5524,303.9705 C691.0497,306.6342 691.5743,312.1229 687.1083,316.068 C694.0023,317.6288 694.924,321.3326 690.6611,326.642 C698.4669,329.2172 699.1924,334.0732 693.8818,339.8473 C698.1948,343.6108 696.8994,348.3949 691.4667,349.7915 C696.8008,355.5173 695.2368,359.6643 688.3422,362.3469 C693.3464,368.117 690.6721,372.836 684.3446,375.0361 C680.9498,379.8135 675.6645,379.7157 672.7103,374.522 C670.5172,382.0018 666.4126,382.4746 660.8711,377.7775 C657.995,384.5323 652.2238,386.0786 647.5806,379.5449 C644.1009,385.9136 639.5765,385.759 635.4839,380.1646 C633.5596,385.7559 628.6919,386.9797 624.5373,382.6173 C619.3408,387.2044 615.0427,386.572 612.7639,379.6362 C609.2156,385.5417 604.1076,384.2957 600.8636,379.3039 C596.216,385.1939 590.19,384.654 587.4709,377.3468 C583.5033,382.1975 578.8736,380.9965 577.0643,375.2311 C573.3745,380.9105 566.6702,381.8975 563.4719,374.7119 C556.9106,370.9774 556.5795,365.6064 563.3149,361.7114 C557.8657,359.2593 557.0674,354.8198 561.1231,350.5082 C555.4453,347.8885 553.6803,344.3759 558.4363,339.2632 C554.2935,334.285 554.9384,329.3643 561.6064,327.2356 C555.7456,323.3697 556.8957,318.5127 562.1176,315.1141 C558.1923,310.993 557.6379,307.2619 563.4688,304.3676" fill="#E1BEE7" filter="url(#fhu37805qvgz6)" style="stroke:#8E24AA;stroke-width:0.5;"/><text fill="#6A1B9A" font-family="'Arial'" font-size="12" font-weight="bold" lengthAdjust="spacing" textLength="63.627" x="569.94" y="321.1205">PKI/K&#253; s&#7889;</text><text fill="#6A1B9A" font-family="'Arial'" font-size="12" lengthAdjust="spacing" textLength="90.8438" x="569.94" y="335.0893">&#8226; Ch&#7913;ng th&#432; s&#7889;</text><text fill="#6A1B9A" font-family="'Arial'" font-size="12" lengthAdjust="spacing" textLength="106.8809" x="569.94" y="349.058">&#8226; X&#225;c th&#7921;c ch&#7919; k&#253;</text><text fill="#6A1B9A" font-family="'Arial'" font-size="12" lengthAdjust="spacing" textLength="76.3477" x="569.94" y="363.0268">&#8226; PAdES PDF</text></g><!--entity email_service--><g class="entity" data-qualified-name="email_service" data-source-line="72" id="ent0022"><path d="M772.6416,883.5216 C776.5642,877.7218 782.6055,875.5352 786.8267,883.2071 C790.2544,878.0843 795.0597,878.1287 797.665,884.0167 C800.8365,877.9258 806.858,878.2037 810.6085,883.3498 C813.0967,876.548 819.8638,876.2429 824.1096,881.3586 C828.6445,875.4367 832.5205,876.3493 836.2656,882.1757 C840.2203,876.3781 846.089,875.7245 849.2399,882.975 C852.5017,877.3289 858.0234,878.2941 860.9521,883.3399 C864.004,877.8538 868.9779,878.0329 872.105,883.2617 C880.0296,886.0587 882.9588,892.4851 875.5205,898.6843 C884.2744,900.1061 886.4653,905.6191 880.7844,912.5291 C885.4808,919.412 883.0125,922.9581 875.6939,924.8947 C883.3274,930.2474 881.6781,936.678 873.8664,940.1847 C870.1759,946.1635 865.8532,947.1605 860.6515,941.9733 C857.8672,947.908 853.6075,949.0403 849.2633,943.5247 C846.5878,950.1363 840.8873,949.7404 836.7903,945.1006 C833.9598,951.953 828.7173,952.2839 823.9071,947.2455 C819.145,952.3145 813.9723,950.4734 811.4639,944.6669 C806.3051,950.9167 801.9095,950.0286 797.9887,943.3741 C793.8396,949.9521 789.1345,948.3678 785.4819,942.8603 C780.6193,946.95 776.0515,945.1037 774.1128,939.4489 C767.4592,936.2176 767.1661,929.449 772.7569,925.0635 C765.9318,921.5977 765.3615,916.8526 770.2242,911.2447 C765.0337,906.8942 765.1303,900.4303 772.167,897.8537 C764.5221,893.6884 764.9457,887.1788 772.6416,883.5216" fill="#CE93D8" filter="url(#fhu37805qvgz6)" style="stroke:#8E24AA;stroke-width:0.5;"/><text fill="#6A1B9A" font-family="'Arial'" font-size="12" font-weight="bold" lengthAdjust="spacing" textLength="85.7813" x="779.27" y="901.1005">Email Server</text><text fill="#6A1B9A" font-family="'Arial'" font-size="12" lengthAdjust="spacing" textLength="74.5195" x="779.27" y="915.0693">&#8226; Th&#244;ng b&#225;o</text><text fill="#6A1B9A" font-family="'Arial'" font-size="12" lengthAdjust="spacing" textLength="67.793" x="779.27" y="929.038">&#8226; Nh&#7855;c nh&#7903;</text></g><!--entity storage--><g class="entity" data-qualified-name="storage" data-source-line="73" id="ent0023"><path d="M574.3556,424.2123 C578.2055,419.415 582.7655,418.5726 586.0849,424.7778 C589.4718,417.3176 596.341,417.163 599.8447,424.6704 C603.6317,418.3617 607.4214,419.2302 611.7871,424.0494 C616.3347,417.8757 620.772,416.9931 625.3489,424.0192 C627.9371,418.4931 632.6914,416.6992 636.7648,422.5257 C640.4619,417.5863 646.1256,417.9935 648.815,423.6696 C652.7476,418.1538 658.024,417.38 661.5471,424.0958 C666.0842,418.9673 670.5718,418.5896 674.4303,424.8625 C681.5815,427.2863 684.0167,431.8798 678.7257,438.2852 C685.9524,441.6349 686.5862,446.6177 681.2715,452.2532 C686.1719,458.1391 686.144,463.9067 677.9202,466.7609 C684.3972,471.781 683.1274,478.8437 675.4093,481.4348 C672.4203,488.4491 666.1119,488.4677 662.0569,482.5341 C658.9225,488.9837 654.7625,490.1477 648.9304,485.8196 C646.2927,491.6318 642.7598,491.9876 638.1731,487.9478 C635.1646,494.4751 629.3258,494.6514 624.97,489.4667 C619.6978,496.5683 614.7645,494.862 610.6978,488.2152 C605.1779,493.2999 601.4846,491.6091 599.3529,484.9438 C594.5489,490.1671 589.5104,488.9035 586.5655,482.838 C581.9064,488.7504 575.8909,489.0703 572.7236,481.3259 C566.2167,477.0608 563.931,471.8179 571.2943,466.2387 C563.7033,463.9878 561.3732,458.5397 567.0713,452.2709 C561.7699,446.0105 563.507,441.3876 570.4702,438.0606 C564.9009,431.7041 565.8241,426.6124 574.3556,424.2123" fill="#BA68C8" filter="url(#fhu37805qvgz6)" style="stroke:#8E24AA;stroke-width:0.5;"/><text fill="#6A1B9A" font-family="'Arial'" font-size="12" font-weight="bold" lengthAdjust="spacing" textLength="82.1074" x="579.53" y="442.1005">File Storage</text><text fill="#6A1B9A" font-family="'Arial'" font-size="12" lengthAdjust="spacing" textLength="67.4883" x="579.53" y="456.0693">&#8226; PDF/Scan</text><text fill="#6A1B9A" font-family="'Arial'" font-size="12" lengthAdjust="spacing" textLength="87.7031" x="579.53" y="470.038">&#8226; Attachments</text></g><!--link admin to ui_layer--><g class="link" data-entity-1="ent0002" data-entity-2="ent0005" data-link-type="dependency" data-source-line="76" id="lnk24"><path d="M73.12,201.7519 C76.88,207.4519 80.62,213.2919 84.04,218.9219 C93.74,234.8919 88.97,244.8519 104.04,255.9219 C108.4388,259.1519 113.2384,261.8747 118.2738,264.1662 C118.5885,264.3094 118.9041,264.451 119.2206,264.5908 C119.3789,264.6608 114.0363,262.3348 114.195,262.4039" fill="none" id="admin-to-ui_layer" style="stroke:#181818;stroke-width:1;"/><polygon fill="#181818" points="119.6961,264.7994,113.0415,257.5388,115.1119,262.8031,109.8475,264.8735,119.6961,264.7994" style="stroke:#181818;stroke-width:1;"/></g><!--link staff to ui_layer--><g class="link" data-entity-1="ent0003" data-entity-2="ent0005" data-link-type="dependency" data-source-line="77" id="lnk25"><path d="M75.73,274.9219 C86.8675,274.9219 100.1713,274.9219 113.9006,274.9219 C115.6168,274.9219 117.3396,274.9219 119.0657,274.9219 C119.2815,274.9219 113.4973,274.9219 113.7131,274.9219" fill="none" id="staff-to-ui_layer" style="stroke:#181818;stroke-width:1;"/><polygon fill="#181818" points="119.7131,274.9219,110.7131,270.9219,114.7131,274.9219,110.7131,278.9219,119.7131,274.9219" style="stroke:#181818;stroke-width:1;"/></g><!--link customer to ui_layer--><g class="link" data-entity-1="ent0004" data-entity-2="ent0005" data-link-type="dependency" data-source-line="78" id="lnk26"><path d="M81.03,361.7819 C103.665,345.5319 133.3275,324.2344 157.6163,306.7956 C169.7606,298.0763 180.5616,290.3216 188.4689,284.6448 C188.9631,284.29 189.446,283.9434 189.9172,283.6051 C190.1529,283.4359 185.5115,286.7679 185.7412,286.603" fill="none" id="customer-to-ui_layer" style="stroke:#181818;stroke-width:1;"/><polygon fill="#181818" points="190.6153,283.104,180.9715,285.1032,186.5535,286.0198,185.6368,291.6019,190.6153,283.104" style="stroke:#181818;stroke-width:1;"/></g><!--link ui_layer to app_layer--><g class="link" data-entity-1="ent0005" data-entity-2="ent0010" data-link-type="dependency" data-source-line="80" id="lnk27"><path d="M222.5344,283.0315 C222.9912,283.2317 223.4551,283.4349 223.9257,283.6411 C227.6909,285.2908 231.8918,287.1314 236.4414,289.1248 C254.6397,297.0984 278.4156,307.5163 302.1888,317.9331 C305.1604,319.2352 308.132,320.5373 311.0926,321.8346 C311.8328,322.159 307.0767,320.0749 307.8153,320.3986" fill="none" id="ui_layer-to-app_layer" style="stroke:#181818;stroke-width:1;"/><polygon fill="#181818" points="313.3109,322.8066,306.6729,315.5308,308.7313,320.7999,303.4622,322.8583,313.3109,322.8066" style="stroke:#181818;stroke-width:1;"/></g><!--link mod_vanban to core_layer--><g class="link" data-entity-1="ent0011" data-entity-2="ent0014" data-link-type="dependency" data-source-line="82" id="lnk28"><path d="M476.31,484.6319 C493.76,495.7219 510.27,510.0019 520.58,527.9219 C531.96,547.6719 513.81,715.5619 528.58,732.9219 C531.9713,736.9081 535.9481,740.2009 540.3152,742.9106 C541.4069,743.588 542.5231,744.229 543.6605,744.8353 C543.9449,744.9868 538.8923,742.3972 539.1793,742.5444" fill="none" id="mod_vanban-to-core_layer" style="stroke:#181818;stroke-width:1;"/><polygon fill="#181818" points="544.5176,745.2835,538.3361,737.616,540.069,743.0009,534.6841,744.7338,544.5176,745.2835" style="stroke:#181818;stroke-width:1;"/></g><!--link mod_khachhang to core_layer--><g class="link" data-entity-1="ent0012" data-entity-2="ent0014" data-link-type="dependency" data-source-line="83" id="lnk29"><path d="M480.81,751.2719 C496.365,751.3444 512.8375,751.4206 528.8339,751.4944 C532.833,751.5128 536.8024,751.5311 540.7202,751.5491 C541.6996,751.5536 542.6759,751.5581 543.6485,751.5626 C543.8917,751.5637 538.1347,751.5372 538.3774,751.5384" fill="none" id="mod_khachhang-to-core_layer" style="stroke:#181818;stroke-width:1;"/><polygon fill="#181818" points="544.3774,751.5659,535.3958,747.5246,539.3774,751.543,535.3591,755.5245,544.3774,751.5659" style="stroke:#181818;stroke-width:1;"/></g><!--link mod_nhansu to core_layer--><g class="link" data-entity-1="ent0013" data-entity-2="ent0014" data-link-type="dependency" data-source-line="84" id="lnk30"><path d="M480.92,638.2019 C496.24,648.6519 510.62,661.5019 520.58,676.9219 C534.23,698.0319 511.33,714.6319 528.58,732.9219 C532.1725,736.7281 536.3011,739.8853 540.7795,742.4955 C541.899,743.1481 537.6843,741.0626 538.8447,741.6484" fill="none" id="mod_nhansu-to-core_layer" style="stroke:#181818;stroke-width:1;"/><polygon fill="#181818" points="544.2009,744.3523,537.9692,736.7256,539.7374,742.099,534.364,743.8672,544.2009,744.3523" style="stroke:#181818;stroke-width:1;"/></g><!--link core_layer to db--><g class="link" data-entity-1="ent0014" data-entity-2="ent0019" data-link-type="dependency" data-source-line="86" id="lnk31"><path d="M650.6998,759.9451 C650.879,759.9998 651.059,760.0546 651.2396,760.1097 C651.9622,760.33 652.696,760.5537 653.4406,760.7807 C654.9297,761.2347 656.4619,761.7019 658.0338,762.1811 C664.3211,764.098 671.2425,766.2081 678.5775,768.4444 C707.9175,777.3894 738.1359,786.6018 766.6009,795.2818" fill="none" id="core_layer-to-db" style="stroke:#181818;stroke-width:1;"/><polygon fill="#181818" points="772.34,797.0319,764.8981,790.5807,767.5574,795.5735,762.5646,798.2329,772.34,797.0319" style="stroke:#181818;stroke-width:1;"/></g><!--link mod_vanban to ai_service--><g class="link" data-entity-1="ent0011" data-entity-2="ent0020" data-link-type="dependency" data-source-line="88" id="lnk32"><path d="M476.27,429.2619 C493.5,420.2719 509.91,408.1319 520.58,391.9219 C534.55,370.7119 515.7,299.8019 528.58,277.9219 C533.31,269.8819 535.1146,266.7406 542.1546,260.3906" fill="none" id="mod_vanban-to-ai_service" style="stroke:#181818;stroke-width:1;"/><polygon fill="#181818" points="546.61,256.3719,537.2478,259.4297,542.8972,259.7208,542.6061,265.3701,546.61,256.3719" style="stroke:#181818;stroke-width:1;"/></g><!--link mod_vanban to pki_service--><g class="link" data-entity-1="ent0011" data-entity-2="ent0021" data-link-type="dependency" data-source-line="89" id="lnk33"><path d="M476.19,414.9819 C490.91,407.3719 506.25,399.4119 520.58,391.9219 C531.57,386.1719 537.9076,382.8498 549.2376,376.8498" fill="none" id="mod_vanban-to-pki_service" style="stroke:#181818;stroke-width:1;"/><polygon fill="#181818" points="554.54,374.0419,544.7144,374.7189,550.1213,376.3819,548.4584,381.7888,554.54,374.0419" style="stroke:#181818;stroke-width:1;"/></g><!--link mod_vanban to storage--><g class="link" data-entity-1="ent0011" data-entity-2="ent0023" data-link-type="dependency" data-source-line="90" id="lnk34"><path d="M476.49,452.5819 C505.07,452.4519 531.2701,452.3287 558.1301,452.2087" fill="none" id="mod_vanban-to-storage" style="stroke:#181818;stroke-width:1;"/><polygon fill="#181818" points="564.13,452.1819,555.1122,448.2221,559.13,452.2042,555.148,456.222,564.13,452.1819" style="stroke:#181818;stroke-width:1;"/></g><!--link core_layer to email_service--><g class="link" data-entity-1="ent0014" data-entity-2="ent0022" data-link-type="dependency" data-source-line="91" id="lnk35"><path d="M634.4317,760.0387 C634.6769,760.2367 634.926,760.438 635.1791,760.6425 C637.2036,762.2781 639.4786,764.1162 641.9745,766.1328 C651.9584,774.1994 665.4781,785.1231 680.6438,797.3769 C710.975,821.8844 743.223,847.9411 771.603,870.8711" fill="none" id="core_layer-to-email_service" style="stroke:#181818;stroke-width:1;"/><polygon fill="#181818" points="776.27,874.6419,771.7833,865.8743,772.3808,871.4996,766.7556,872.097,776.27,874.6419" style="stroke:#181818;stroke-width:1;"/></g><?plantuml-src bLPBRzj64BxhLooSGreKXY8vikN2CK1HP6mebXmhZnu212jo9Iv4xJhaqevJ14XQe3taqg0jYXwAnac3Fj0WJj0UAYBeWOR_1_jBEhjyYA8L50KCmPoPdVtupJSpl8YkNBc2z7ZwCa1Ez3jp48kdRoQ8ZJ0RIL_59KE114SU7Ja2sTGZbg2SLIeNrT6-E789caJF0kJ7qzSMP7b6uUSjLgVzCMNxsCCJDC3MUEJnWDawTxc7BfYQgPjc8S9tiCqFATmhl80K73OPui0L9cUYYoS4BMaUnUxIueW-VK1GhLufUB4buC9FAmYroY2C5RDkjgM7UpRnKcjjVMsrNGUhJ9ZP6giD_LBbOJ6nv09u0W9ayhqahyU8XsgD-KYBJ_Ov8qoSZopbjB700-oJnNXDqsmQjJ9USrrhrXlpUCt6cbbRAw5mUM2_9_6AqJ0RvSHDetvPq-OJhsgrrhec4miguDKtV63yurfpSsEmkHM7NoBXnE5JgEBr89w-OCYDtg6UpJaojs-qkpStgeFDZQeyitc7fMVhcnqQJ_zcKFXeQY4HXz_2-Ni1PcWPhQ0TRWTmaUL4hq2W7o5jkzhJzz8acH2xexEJEFo18ZlwAvLkKlUb58Vmul09Eg3HRsm9OHzXUq8PAA1fDeprBBRhHCzP8SWNU3ZCPP86TPpes7Aaqjb8HLc1B_Y49FLPCIvbc6x4qvy1ouXY3fq3t325QoQR9U3iwhRMG-tjEFoYAxcvmpwuJGRevlQ7AdL0xxhuYEHILTMRgMd9vDu4tQBaK4KFvTE5LgjjcAtvk0vc0w0pZnmdpmjZszXt1XnxjegqiwV5mRVfWopoKFsRXpqiqH27lyAl7OSlq_hCyn27ltIledOS_jIzcXAXP9DKtq_emFlxEH-gS6K-8D6jqy-wg1LFdwTy_lFDu_VzWVFHyw9G3qu_PsWW7nCNw4oAyXMK-pv4lHI9kGEXfq-JYe9QNoNMszmR3rr-YEpW25n28Pvm--v1IhRUD5RrzNE0ErlHOtqBRKMFiZV_JyZGQ5yZ_-mOZGjQJ5odNvqTiw81OhzJwdzHrVkThSIOrnZfUpivqB63BSUHe_-2rcYlQcldi7Qt8c2t7uSd_nSfcxLMuj4T81I6KlH7XhGbYHyXz-m4NY6rxS8k0HlmLxs5gIp6snmk0wX-06EgfgyrBvyJd1lzIPFHSrvjlNQlX_JUdf5AhHk7ZsKj9O14QXRtIAQrfAtBMkljxS19q2TnKtcgzZDDurAhFX_Q9rRWKN44yPf-hRetKxIVUXQVsy7KbUYue4DgORbvqtCJy2m-ayaGplK55jb5XvawiqDbkg0pNoDNYZfGXEMRIFArotqnyaZ_-hM4i7RgJ4R48DzCQKfeuoSWomDeTZI0YiC71PSV1Z9lieLaqcoGAo51hMyKEmq9Sb_a6W3f2ELaSVWz3FaWquSM2BuyfAvRn9_C2dhN9zu1jKY-tcPNxtQsgxABVTXLCm0WIJMaX7Dsebo9-HFeCRNMtbYmXUGru-XT2aspZJxQRPlgolrnuKwZrZACjSATXgfP7_p4Axoq8ni0M3hcYQ7hg0yf1XVzgB8IUMwMLpVMLzhDGbwJWgZxi9hmYCpo0gPgty9fisb2G6jFG21-kjXKE0nhRRMfDxEwTM0D2ydnqwHMoP9SNjxC5r4bMObpfdp_pLah-UwIvdnoLog5aIWziqQhpC-W1SwquqkUIg5NfSiUdBja9eQofr2piYibgPn-hXx_0W00?></g></svg>